<?xml version="1.0" standalone="no"?>
<!DOCTYPE svg PUBLIC "-//W3C//DTD SVG 20010904//EN"
 "http://www.w3.org/TR/2001/REC-SVG-20010904/DTD/svg10.dtd">
<svg version="1.0" xmlns="http://www.w3.org/2000/svg"
 width="225.000000pt" height="225.000000pt" viewBox="0 0 225.000000 225.000000"
 preserveAspectRatio="xMidYMid meet">
<metadata>
Created by potrace 1.14, written by Peter Selinger 2001-2017
</metadata>
<g transform="translate(0.000000,225.000000) scale(0.100000,-0.100000)"
fill="#000000" stroke="none">
<path d="M1478 2241 c-128 -41 -190 -182 -131 -296 12 -22 80 -96 152 -164
l131 -123 98 90 c53 49 118 112 144 140 82 87 90 187 21 280 -38 51 -97 76
-170 74 -107 -4 -117 -4 -168 2 -27 3 -62 1 -77 -3z m115 -196 l41 -35 36 35
c37 36 67 44 88 23 23 -23 12 -44 -56 -111 l-68 -68 -72 66 c-40 37 -72 73
-72 80 0 18 28 45 47 45 8 0 33 -16 56 -35z"/>
<path d="M1410 1445 c0 -58 -2 -105 -5 -105 -3 0 -67 29 -143 65 l-138 66
-454 -217 c-250 -120 -456 -219 -458 -220 -2 -1 12 -36 32 -78 l35 -77 50 26
c28 14 53 25 55 25 3 0 7 -198 8 -441 l3 -441 28 -24 28 -24 674 0 674 0 28
24 28 24 0 441 c0 243 4 441 8 441 4 0 30 -11 58 -25 l50 -26 35 77 c20 42 34
77 32 77 -2 1 -42 21 -90 44 l-88 43 -2 212 -3 213 -222 3 -223 2 0 -105z
m280 -155 l0 -90 -60 30 -60 30 0 60 0 60 60 0 60 0 0 -90z m-271 -145 l271
-129 0 -423 0 -423 -142 0 -143 0 0 307 0 308 -280 0 -280 0 0 -308 0 -307
-142 0 -143 0 0 423 0 423 273 131 c149 73 282 131 293 130 12 -1 144 -60 293
-132z m-179 -658 c0 -74 -3 -175 -6 -225 l-7 -92 -102 0 -102 0 -7 92 c-3 50
-6 151 -6 225 l0 133 115 0 115 0 0 -133z"/>
</g>
</svg>
